<svg version="1.1" preserveAspectRatio="none" xmlns="http://www.w3.org/2000/svg" width="500" height="500" viewBox="0 0 500 500"><rect width="100%" height="100%" fill="#FB5924" fill-opacity="1"/><svg viewBox="930.4536 765.3418 543.1898 230" width="333" height="141.0004385207528" x="83.5px" y="179.4998px" xmlns="http://www.w3.org/2000/svg" xmlns:xlink="http://www.w3.org/1999/xlink" preserveAspectRatio="none"><defs></defs><style>.companyName {fill:#EFEFEF;fill-opacity:1;}.icon2 {fill:#EFEFEF;fill-opacity:1;}.icon3 {fill:#3661B4;fill-opacity:1;}.icon3-str {stroke:#3661B4;stroke-opacity:1;}.shape {fill:#1D2C49;fill-opacity:1;}</style><g opacity="1" transform="rotate(0 930.4536 765.3418)">
<svg width="543.1898" height="230" x="930.4536" y="765.3418" version="1.1" preserveAspectRatio="none" viewBox="31.50701904296875 71.00200653076172 136.99000549316406 58.004981994628906">
  <g transform="matrix(1 0 0 1 0 0)"><g><path d="M113.449 127.133a1.397 1.397 0 0 1 .018-.383c.278.042.508.221.765.273l18.623-2.606a.451.451 0 0 0-.294-.041c.365-.315.669-.394.98-.256.063.028.087.107.08.19l22.229-3.11c.003-.194.202-.194.3-.233.122-.05.185.059.197.164l4.354-.609c-.057-.158-.06-.299.104-.41.052-.035.238.014.243.044a.371.371 0 0 1-.105.332l6.212-.869a1.56 1.56 0 0 0 1.342-1.546V81.928a1.56 1.56 0 0 0-1.342-1.546l-40.294-5.638c-.054.101-.118.208-.181.33-.044-.143-.106-.265-.159-.378l-17.963-2.513c.12.57-.07.924-.426 1.221a.595.595 0 0 1-.363.152c-.343.024-.62-.118-.662-.438-.023-.18.319-.216.444-.312.301-.233.674-.32.966-.628l-8.3-1.161a1.556 1.556 0 0 0-.431 0l-.342.048c.105.187.246.356.451.503.264.19.252.552.007.775-.318.289-.503-.041-.63-.254-.193-.322-.545-.561-.691-.903l-16.291 2.28a.824.824 0 0 1 .158.453c0 .016-.227.038-.361.057l-.058.375a2.117 2.117 0 0 1-.658-.467c-.083-.091-.14-.174-.086-.277l-2.085.292-.164.228c-.188-.026-.296-.083-.346-.157l-5.901.826a.282.282 0 0 1-.147.08.194.194 0 0 1-.143-.039l-10.615 1.485a.37.37 0 0 1-.235.275.346.346 0 0 1-.243-.208l-28.557 3.996a1.56 1.56 0 0 0-1.342 1.546v35.64l.008.018a.16.16 0 0 1-.008.114v.373c0 .779.572 1.439 1.342 1.546l4.613.645c.029-.43.22-.811.585-1.122.203-.173.498-.215.636-.483.051-.098.195-.163.264-.009.186.413.547.757.452 1.282-.07.385-.043.39-.571.18l.002.345 6.668.933c-.036-.213-.064-.394.05-.584.093.196.076.379.033.596l5.134.718c.119-.17.313-.263.619-.263.056 0 .108-.078.168-.108.724-.364.732-.364.861.427.01.059.018.12.023.179l19.914 2.787c-.047-.209-.047-.421.081-.712.025.323.051.531-.002.723l8.866 1.241c.078-.211.199-.372.553-.338.312-.233.387.175.595.237h-.464c-.07.053-.138.11-.206.168l18.065 2.528c.143.02.288.02.431 0l13.23-1.859zm42.654-41.838c-.182-.464-.158-.762.074-1.082.417.356.152.649-.074 1.082zm.924 8.19c.142-.01.263.021.336.206-.067.062-.134.172-.221.192-.154.036-.237-.107-.289-.225-.075-.168.067-.165.174-.173zm.285 18.282c-.175-.164-.37-.268-.362-.508.006-.187.126-.305.295-.303.229.003.409.153.368.384-.028.154-.195.284-.301.427zm.512-6.286c-.142-.028-.214-.222-.178-.38-.032-.181.074-.35.176-.342.208.015.241.219.236.403-.005.162-.073.351-.234.319zm4.231 14.735c-.137-.045-.269-.124-.249-.275.012-.094.128-.174.197-.26.064.092.152.176.185.278.033.101.035.233-.133.257zm2.584-31.982c-.237-.228-.314-.413-.101-.623.068-.067.161-.112.225-.022.169.237-.08.402-.124.645zm-.091-1.837c.088-.097.224-.092.296.009.238.333-.141.528-.167.819-.306-.267-.388-.543-.129-.828zm-.602 9.475c.126-.035.185.085.19.211a.305.305 0 0 1-.228.297c-.126.036-.188-.083-.189-.209a.306.306 0 0 1 .227-.299zm-.449 2.852c.077.115.145.192.183.282.044.104-.021.162-.123.164-.099.002-.25.045-.235-.124.008-.096.097-.185.175-.322zm.584 5.181c-.483-.154-1.063.277-1.301-.383.264.608.922-.065 1.301.383zm-1.368-24.118c.096-.005.176.029.17.148-.008.151-.075.258-.238.264-.098.004-.168-.042-.173-.154 0-.161.083-.25.241-.258zm-.594 20.118c.017-.026.15-.024.165.003.095.166.093.335-.065.538-.193-.204-.209-.371-.1-.541zm-.255-19.844c.079.01.198-.01.177.125a.322.322 0 0 1-.238.28c-.107-.007-.145-.074-.155-.171-.017-.163.04-.256.216-.234zm-.08 29.597c-.02.142-.098.286-.232.259-.124-.025-.21-.171-.19-.268.023-.209.106-.351.237-.323.119.025.208.172.185.332zm-.804-21.017c-.021-.264-.113-.493.199-.545.093-.016.18.018.189.137.019.251-.103.38-.388.408zm.175-8.152c.07.13.392.134.297.249-.202.245-.419.529-.717.572-.187-.008-.35-.057-.306-.17.128-.326.445-.476.726-.651zm-.33 17.444c.204.011.29.099.268.293-.025.22-.104.394-.371.386-.276-.008-.123-.315-.3-.358.063-.253.186-.333.403-.321zm-1.004-10.386a.245.245 0 0 1 .119-.134c.093-.039.167.001.182.11.016.114-.06.147-.158.16-.054-.037-.196.011-.143-.136zm-.516-.755c.036-.086.097-.215.223-.183.055.014.086.121.124.178-.085.103-.04.276-.195.249-.109-.02-.202-.125-.152-.244zm-2.615-3.842c.048-.337.233-.527.563-.529.46-.003.313.415.234.543-.354.57-.036 1.1.015 1.644l.022.022-.002.019.661.09c-.242.442-.374.893-.795 1.389l.133-1.48-.015-.002-.005-.039c-.458-.458-.917-.913-.811-1.657zm-.519-.898c.131.027.356.021.365.273.006.19-.01.356-.188.473a.652.652 0 0 1-.355-.443c-.038-.162.084-.322.178-.303zm-.045 1.626c.048.014.109.08.114.127.011.104-.077.145-.185.178-.023-.047-.066-.097-.07-.15-.007-.09.015-.191.141-.155zm-117.923-.39c.14-.024.225.159.207.279-.016.109-.126.275-.212.287-.139.019-.217-.136-.264-.291.084-.092.164-.257.269-.275zm.194 3.325c-.026.089-.129.156-.188.224-.16-.063-.226-.16-.185-.276.035-.099.123-.179.187-.267.107.081.23.172.186.319zm-6.32-3.27c-.111.04-.152-.051-.156-.153.005-.089-.005-.19.115-.213.148-.028.22.086.228.191.003.056-.11.148-.187.175zm.735 15.404c-.241.023-.199-.213-.277-.326-.133-.193.06-.314.191-.343.172-.038.28.108.306.282.028.182-.083.294-.22.387zm.853 11.644c-.173-.034-.249-.121-.2-.247.054-.137.088-.344.297-.305.123.023.262.129.23.288-.037.181-.227.193-.327.264zm.252-20.36c-.087-.008-.177-.018-.18-.135-.004-.118.082-.139.172-.142.115-.004.234.013.213.166-.014.102-.114.113-.205.111zm.95-4.527c-.063-.026-.137-.147-.124-.204.021-.089.114-.16.176-.239l.188.241c-.078.116-.106.257-.24.202zm.271-2.33c-.046-.145.114-.302.284-.299.129.002.232.121.238.273.006.178-.135.262-.211.366-.245-.018-.276-.233-.311-.34zm.411 36.353c-.15-.005-.174-.11-.17-.232.006-.136.067-.209.211-.177.121.026.209.097.197.228-.013.133-.113.185-.238.181zm.226-34.628c-.143-.052-.214-.182-.192-.307.014-.082.14-.201.22-.204.202-.008.136.177.143.292.006.112-.014.224-.171.219zm.162 23.105c.084-.161.186-.271.372-.246.176.024.315.125.291.304-.017.132-.164.26-.301.199-.126-.057-.326-.062-.362-.257zm.553 8.498c.143.203.228.394.014.583-.104.092-.155.009-.206-.046-.24-.267.136-.349.192-.537zm.105 3.065c-.076.163-.083.408-.322.473-.142-.086-.274-.202-.273-.367.001-.189.126-.327.311-.394.053.145.39.062.284.288zm-.26-1.011c-.132-.046-.253-.131-.247-.273.009-.189.185-.242.337-.268.159-.026.267.074.235.232a.392.392 0 0 1-.325.309zm.566-7.99c-.004.115-.055.22-.206.203-.116-.076-.255-.161-.187-.316.038-.088.165-.19.254-.191.212-.004.143.186.139.304zm.362-3.158c-.047.194-.099.387-.163.633-.327-.114-.392-.372-.455-.589-.08-.272.083-.51.247-.72.076-.098.178-.115.286-.013.224.209.143.449.085.689zm.283 1.528c.033-.052.215-.084.238-.054.23.295.017.529-.125.776-.259-.212-.277-.463-.113-.722zm.219-1.322c-.026-.146.094-.226.206-.277.161-.02.204.097.235.196.056.179-.079.228-.213.26-.145.034-.211-.087-.228-.179zm.057 3.74c.139.011.209.066.186.196-.004.168-.089.316-.213.332-.16.021-.197-.14-.203-.286-.006-.165.045-.257.23-.242zm.093 6.078c-.213-.043-.293-.177-.315-.34-.028-.21.134-.198.27-.2.193-.004.401.043.375.267-.011.107-.222.19-.33.273zm.158-10.23c-.196.005-.339-.073-.308-.173a.474.474 0 0 1 .455-.339c.144-.006.329.069.316.191-.033.291-.377.17-.463.321zm63.337 8.808c-.015.101-.075.195-.167.171-.128-.033-.25-.124-.225-.286.018-.113.128-.099.216-.102.144.002.196.079.176.217zm-.193-.875c-.196-.41.19-.542.179-.805.062.269.009.508-.179.805zm1.932-10.097l-1.043-.057c-.092.12-.223.198-.353.117-.097-.06-.107-.226-.03-.309.128-.138.276-.109.388.049.297.128.654-.158 1.038.2zm-.799-1.036c-.032-.179.117-.249.257-.215.259.063.332.293.315.518-.008.105-.148.2-.234.307a.998.998 0 0 1-.338-.61zm.918-3.232c-.079-.005-.153-.083-.172-.095.009-.215.094-.237.186-.231.09.006.195.033.198.139.004.127-.106.194-.212.187zm.326 6.583c.109-.008.158.038.173.15.023.161-.053.286-.177.336-.118.047-.207-.089-.224-.183-.028-.157.115-.228.228-.303zm-.701-.396c.12.319.024.525-.308.618-.195-.355.036-.494.308-.618zm-.381-.736c-.153-.013-.19-.16-.249-.268-.008-.154.117-.192.211-.211.204-.042.187.128.192.252.004.107.004.241-.154.227zm-.971-4.039a.286.286 0 0 1-.27-.236c0-.131.043-.271.165-.249.135.023.319.082.316.275 0 .109-.078.222-.211.21zm.423 4.04c.13.282.518.541.08.811-.161.099-.389.181-.513-.071-.209-.425.328-.451.433-.74zm.043 4.722c-.26-.092-.643-.27-.455-.722.187-.448.412-.863.916-1.118.129.515-.127.938-.134 1.383-.001.136.001.574-.327.457zm.643 16.747c-.071-.031-.153-.085-.184-.152-.07-.153.098-.125.138-.115.072.017.131.087.23.16-.092.056-.155.12-.184.107zm.215-7.83c-.467-.884.253-1.02.63-1.383.494-.477.595.194.895.268.152.038.09.34.052.503-.061.259-.348.179-.455.123-.528-.274-.846-.057-1.122.489zm1.852-11.649c-.038.12-.133.222-.203.334-.09-.079-.204-.123-.204-.266 0-.16.072-.287.217-.298.098-.007.233.092.19.23zm-.048-1.278c-.003-.111.081-.148.173-.154.098-.007.169.031.159.189-.042.035-.101.121-.172.133-.095.017-.157-.07-.16-.168zm.609 2.542c-.144.338-.304.583-.63.628-.217.029-.294-.112-.622-1.015.4.335.807.349 1.252.387zm-.941 13.905c-.211-.051-.312-.196-.282-.395.014-.095.118-.176.181-.263.118.13.279.243.341.396.061.153-.124.203-.24.262zm.527-3.162c-.147.015-.28-.016-.27-.201.009-.164.121-.232.277-.21.093.013.183.049.275.075-.081.182-.12.319-.282.336zm.164-8.885c-.164-.065-.299-.14-.295-.334.005-.241.245-.258.376-.314.19-.082.168.129.178.255.019.205-.064.338-.259.393zm-.326-13.915c-.288-.4-.506-.681-.495-1.171.607.191.548.606.495 1.171zm.15 4.964c.175-.004.301.137.335.296.031.143-.095.293-.213.31-.209.029-.243-.217-.376-.295.023-.189.113-.308.254-.311zm1.693 4.041c-.097.104-.208.119-.276-.013-.122-.239-.306-.495.1-.731-.128.31.53.364.176.744zm.104-1.76c.045-.054.097-.092.153-.018.179.236.219.521.243.621.063.373.042.602-.152.638-.15.028-.232-.178-.23-.352 0-.023.005-.049-.005-.068-.138-.273-.24-.545-.009-.821zm-.256-2.032c-.238-.002-.403-.105-.396-.256.012-.24.206-.385.444-.42.173-.026.348.076.34.236-.012.244-.246.342-.388.44zm-.248-13.296c-.135-.001-.176-.104-.178-.236.015-.073.015-.169.137-.171.136-.002.205.103.228.199.03.122-.063.209-.187.208zm-.124 33.452c-.176-.082-.202-.228-.19-.396.008-.112-.001-.258.158-.225.155.032.286.134.259.332-.02.141-.092.244-.227.289zm1.336-20.507c.15-.124.294-.054.332.07.118.391-.195.578-.412.821-.317-.353-.233-.632.08-.891zm.206 17.687c-.257-.133-.475-.238-.458-.495.005-.074.251-.217.314-.185.262.134.261.378.144.68zm.842-26.291c-.022-.048-.072-.105-.061-.144a.23.23 0 0 1 .122-.127c.076-.032.115.028.119.098.005.107-.081.135-.18.173zm.465 3.761c-.058.379-.452.374-.74.59-.066-.122-.206-.263-.178-.351.089-.281.273-.527.588-.569.2-.027.362.118.33.33zm-.416-1.728c-.021.253-.148.529-.422.507-.215-.017-.105-.298-.119-.463-.021-.252.061-.445.363-.461.284.035.19.272.178.417zm-.425 7.7c.192-.257.501-.397.747-.552.294-.186.437.285.73.478-.479.202-.848.363-1.222.51-.151.059-.318.089-.41-.107-.079-.168.081-.23.155-.329zm1.2 5.44c.212-.183.24.018.337.115.413.414.058.618-.231.871-.175-.33-.556-.598-.106-.986zm-.077 2.623c.05.215-.146.477-.192.466-.239-.053-.308-.295-.358-.511-.04-.172.101-.264.235-.275.207-.016.353.08.315.32zm-1.171 14.384c-.079-.018-.181-.158-.184-.247a.253.253 0 0 1 .249-.261c.167-.006.131.143.145.247-.013.137-.024.303-.21.261zm.729-1.132c-.024.077-.119.131-.182.196l-.188-.239c-.014-.182.097-.179.177-.169.112.015.238.065.193.212zm.65-5.366c-.063.173-.18.185-.308.111-.154-.134-.324-.087-.477-.077-.6.037-.468-.495-.329-.627.409-.388.527-.903.753-1.367.068-.139.083-.237.257-.226.159.01.14.125.181.231.207.534.593 1.087-.316 1.375-.115.036-.254.259.034.331.145.036.279.048.205.249zm.88 1.476c-.336-.031-.755-.462-.773-.846-.016-.358.519-.457.807-.556.222-.077.265.335.26.648-.132.215.022.784-.294.754zm.292-8.302c-.047-.029-.103-.14-.091-.152.165-.173.351-.271.651-.071-.204.127-.271.404-.56.223zm-.002-1.951c.011-.252.197-.193.341-.192.131.001.328.004.314.164-.018.201-.221.248-.467.257-.104.009-.195-.05-.188-.229zm1.376 11.916c-.283.136-.342-.068-.404-.293.202-.037.403-.167.533.078.021.041-.063.184-.129.215zm1.038-18.546c.221-.134.423-.092.653-.009-.227.104-.429.12-.653.009zm.749 15.81c.271-.548.573-1.078 1.34-.882.036.528-.686.408-.597.867.06.31.471.338.564.752.153.681.235.689-.481.691-1.158.004-1.363-.342-.826-1.428zm1.94-20.504c.203-.27.276-.643.388-.976.039-.116-.029-.308.177-.279.167.023.32.165.267.342-.221.744-.329 1.537-.841 2.229-.307-.502-.316-.884.009-1.316zm.127-13.919c.13-.001.169.117.173.237-.019.075.026.192-.107.195-.129.003-.2-.083-.224-.201-.025-.127.033-.231.158-.231zm.665-9.74c-.037-.2-.349-.307-.131-.566.156-.185.293.012.331.051.277.287-.163.315-.2.515zm.37 1.735c.032.117-.047.203-.178.239-.189-.036-.291-.197-.366-.348-.026-.052.096-.207.22-.192.167.021.281.145.324.301zm.055 19.043c-.284.211-.5.246-.715.028-.07-.071-.109-.174 0-.222.258-.115.481-.019.715.194zm-.915 5.942c.214.077.115.245-.015.378-.123.126-.248.232-.363.028-.21-.369-.516-.697-.516-1.025-.06-.259-.006-.378.106-.403.118-.027.195.094.212.202.059.37.171.674.576.82zm-.571 14.245c-.075.052-.156.143-.25.162-.102.02-.154-.091-.15-.186.005-.11.093-.146.193-.146.095.001.18.024.207.17zm-.291-17.422c-.13-.011-.268-.085-.227-.255.023-.096.102-.179.18-.309.113.149.233.246.262.366.026.106-.103.207-.215.198zm.874 23.583c-.272.196-.557.372-.819.58-.136.108-.237.198-.401.057-.188-.162-.216-.324-.036-.506.093-.455.366-.73.821-.823.355-.267.495.137.659.273.141.117-.076.313-.224.419zm.407-21.33c.006-.209.221-.32.393-.247.137.057.383.017.413.268-.127.164-.245.393-.46.358-.152-.025-.351-.191-.346-.379zm.428 13.973c.111.007.261-.006.225.162-.029.136-.153.257-.297.23-.087-.016-.208-.142-.218-.229-.026-.225.171-.143.29-.163zm-.288 7.788c-.055-.093.41-.994.533-.993.266.002.341-.128.246-.338-.226-.503.343-.397.403-.661.283.125.404.29.247.508-.358.497-.74.978-1.118 1.461-.085.108-.196.217-.311.023zm1.106-19.439c-.155.021-.206-.146-.284-.223.012-.21.15-.177.25-.172.116.006.319-.059.257.177-.023.09-.137.206-.223.218zm-.148 1.679v-.662c.239.21.269.392 0 .662zm.06-11.358c-.304-.334-.298-.612.076-.855.097-.063.207-.167.274-.011.169.399-.125.616-.35.866zm.551 30.182c-.129-.111-.253-.183-.204-.356.029-.103.089-.167.189-.124.1.043.233.104.199.238-.023.092-.121.164-.184.242zm1.024-3.455c-.191-.04-.219-.214-.252-.356-.06-.262.197-.194.314-.252.193-.097.216.065.233.206.027.223-.107.328-.295.402zm-.069-22.381c.086-.083.284-.19.408-.008.208.306-.093.479-.249.855-.072-.357-.472-.545-.159-.847zm.701 15.127l-.236-.459c.065-.007.141-.041.193-.018.243.108.047.308.043.477zm.497 6.415c-.171.033-.196-.153-.294-.203.027-.198.127-.304.264-.322.154-.02.261.108.277.244.019.153-.111.255-.247.281zm.799 1.959c-.162-.005-.37-.069-.303-.229.078-.184.213-.423.461-.438.174-.011.287.161.263.32-.033.213-.18.355-.421.347zm.366-12.473c-.126-.012-.2-.101-.209-.233-.023-.213.17-.188.278-.229.216-.081.12.119.132.192.024.143-.003.289-.201.27zm.367-10.409c-.019-.128.135-.282.258-.236.17.064.432.087.456.322.018.17-.152.264-.332.319a.505.505 0 0 1-.382-.405zm.406 5.556c-.049.001-.129-.043-.143-.084-.046-.135.051-.201.163-.222.045-.008.102.045.089.039.025.181 0 .265-.109.267zm.296 5.81c-.09.024-.16-.061-.17-.166-.016-.137.041-.217.18-.227.088-.007.201-.017.214.097.018.154-.091.261-.224.296zm.553 10.757c-.204-.02-.201-.186-.227-.301-.037-.166.019-.308.224-.328.156-.015.255.025.249.211-.007.196-.139.301-.246.418zm.054-10.195c-.131-.062-.257-.159-.223-.345.023-.126.083-.311.213-.293.214.029.217.272.253.436.019.082-.075.211-.243.202zm.454-1.227c.047.088.033.253-.096.277-.271.051-.251-.204-.329-.353-.005.006-.01.006-.016.013l.011-.022c-.035-.21-.265-.154-.364-.267-.122-.139-.564.029-.385-.388.101-.235.922-.501 1.089-.342.2.191.128.401-.047.595-.11.123-.196.268-.291.404l.003.007c.171-.181.322-.116.425.076zm-.733-23.403c-.075-.101-.119-.185.013-.281.424-.309.663.087 1.099.285-.474.158-.803.411-1.112-.004zm.598.748c-.02.145-.086.283-.22.309-.054.011-.142-.15-.181-.194-.029-.223.012-.329.206-.319.137.007.217.049.195.204zm.8 24.097c-.133.073-.032.346-.255.334-.14-.007-.258-.125-.247-.268.015-.18.169-.253.336-.265.125-.009.225.03.166.199zm16.847 8.856c-.18-.175-.091-.338-.091-.628.198.279.144.44.091.628zm.717-11.934c-.165-.005-.192-.171-.227-.264-.079-.212.108-.191.231-.188.097.003.25-.06.269.103.021.181-.135.259-.273.349zm3.203 8.855c-.039-.142.084-.172.184-.169.144-.004.233.037.219.182-.012.118-.079.241-.193.217-.086-.018-.185-.137-.21-.23zm.478 1.741c-.094.06-.188.013-.201-.093-.033-.262-.023-.513.335-.568.114.26.132.492-.134.661zm2.743-25.882c-.151.041-.192-.075-.193-.196-.001-.135.075-.202.214-.19.09.008.182.013.189.277-.012.007-.105.081-.21.109zm1.574 24.281c-.015-.034-.109-.146-.093-.24.02-.119.129-.224.199-.334.065.09.153.171.189.271.043.116-.014.216-.295.303zm3.087-11.673c-.049-.022-.081-.083-.136-.143.072-.049.121-.11.172-.111.092-.003.179.054.162.159-.017.1-.108.135-.198.095zm.81-18.213c-.068-.06-.074-.18.006-.241.318-.24.548.023.8.176-.276.136-.541.299-.806.065zm1.071 2.775c.135-.025.216.063.21.18-.003.062-.092.149-.158.17-.089.027-.164-.032-.163-.144.009-.084 0-.186.111-.206zm-.226-8.484c.11.428.023.726-.517 1.76-.496-.585-.343-1.109.517-1.76zm-.684 2.65c.163.033.266.167.254.35-.01.148-.142.31-.229.268-.143-.069-.234-.248-.329-.36.052-.194.17-.285.304-.258zm-.86.784c.205.001.391.061.404.264.014.217-.183.282-.377.295-.2.013-.288-.081-.299-.279-.011-.204.066-.281.272-.28zm-.672 4.464c.098-.33.387-.494.688-.561.102-.023.435.101.378.266-.121.353-.561.329-.794.53-.206.019-.318-.08-.272-.235zm-.644-5.26c.117-.005.207.152.216.294.008.131-.077.201-.198.229-.132-.011-.194-.092-.215-.215-.029-.166.096-.303.197-.308zm.067 31.107c.054.071.054.233-.069.291-.298.142-.395-.164-.576-.315.231-.067.467-.212.645.024zm-.853-30.154c.127.03.179.131.18.257-.001.142-.156.256-.204.24-.123-.041-.238-.156-.214-.316.019-.122.099-.214.238-.181zm-.372 27.421c.015.166-.029.295-.152.291-.195-.006-.213-.206-.222-.341-.005-.066.135-.197.216-.203.203-.012.126.183.158.253zm-.34-26.041c.013-.018.104-.01.119.013.122.18.129.355-.098.563-.142-.225-.153-.403-.021-.576zm-.222 5.864c.013.136-.046.209-.182.217-.127.011-.221-.027-.227-.172-.005-.125.037-.212.182-.221.132-.007.213.037.227.176zm-.261-3.688c.013.14-.102.188-.191.254l-.18-.263c.044-.126.118-.204.244-.195.12.009.119.117.127.204zm-.426-3.82c.143.025.294.122.27.337-.082.164-.154.411-.358.4-.137-.007-.321-.199-.309-.393.012-.219.159-.385.397-.344zm-.774-2.473c-.185.164-.331.315-.593.189.116-.253.3-.29.593-.189zm-.923.418c-.002.376-.366.421-.612.638-.128-.628.417-.442.612-.638zm-1.723 31.66c.088-.001.203-.009.219.101.024.161-.098.254-.231.292-.107.03-.152-.063-.159-.163-.015-.132.02-.227.171-.23zm-1.59-23.739c.455.15.728.642 1.256.674.075.005.218.15.144.268-.1.16-.164.419-.432.36-.535-.118-1.065-.259-1.701-.417.164-.093.195-.113.228-.129.175-.084.486.18.54-.212.014-.102-.034-.219-.128-.192-.23.066-.57-.226-.688.18-.046.158-.071.271-.248.171-.159-.09-.081-.233-.032-.351.215-.526.624-.496 1.061-.352zm-1.301-6.027c.184.027.377.091.34.327-.017.108-.136.2-.208.299-.134-.115-.311-.197-.315-.454-.013-.095.035-.194.183-.172zm-1.147.975c.248.034.295.234.278.458-.011.149-.067.25-.229.28a.71.71 0 0 1-.31-.489c-.018-.128.124-.267.261-.249zm-.177 28.704a.935.935 0 0 1-.76.035c.266-.158.472-.082.76-.035zm-1.589-36.817c.256-.025.401.28.446.615h-.739c.191-.215.029-.589.293-.615zm-1.246 4.209c.211-.342.484-.646.749-.952.046-.053.192-.084.244-.051.055.035.098.21.067.238-.336.308-.379.785-.664 1.116-.04.046-.115.062-.153.081-.406.012-.303-.336-.243-.432zm-.162 1.014c.176-.064.234.152.226.248a.623.623 0 0 1-.297.481c-.195-.052-.241-.219-.257-.368-.023-.217.179-.307.328-.361zm-1.429-2.834c-.393-.401-1.176-.338-1.155-1.135.277.478 1.445.004 1.155 1.135zm-.875 2.586c.197-.01.357.052.375.25-.024.218-.121.376-.289.364-.222-.016-.355-.221-.385-.419-.023-.162.169-.188.299-.195zm.43 40.431c-.477.243-.566-.19-.875-.245.485-.422.606.009.875.245zm-1.442-39.279c.022-.066.122-.106.188-.157l.112.188c-.048.093.003.228-.129.201-.108-.022-.212-.106-.171-.232zm-.036 25.412c.165-.023.236.104.265.235.026.115-.077.139-.166.152-.133.02-.212-.028-.205-.176.018-.081-.007-.196.106-.211zm-.826 14.745c-.441-.363-1.058-.4-1.365-.932.91-.317 1.223-.108 1.365.932zm-1.78-28.852c.149-.008.146.147.198.254.018.122-.034.223-.161.24-.164.022-.174-.113-.166-.229.008-.103-.037-.257.129-.265zm-.229 5.511c.113-.003.243.006.197.165-.027.093-.119.166-.168.229-.149-.01-.199-.071-.202-.171-.004-.122.028-.22.173-.223zm-2.673-18.272c.138-.023.244.087.272.248-.115.167-.205.386-.433.391-.129.003-.258-.16-.224-.291a.492.492 0 0 1 .385-.348zm.113 35.82c.034.017.058.142.033.182-.142.22-.33.117-.583.043.189-.233.344-.327.55-.225zm-.455 1.008c.162-.112.355.125.34.301-.03.355-.396.501-.545.854-.168-.191-.406-.394-.379-.441.156-.265.339-.544.584-.714zm-.922-43.228c.13.014.333-.012.287.169-.038.152-.214.268-.307.375-.191.021-.281-.091-.264-.19.025-.15.005-.383.284-.354zm-.078 38.458c-.096.191-.16.417-.352.404-.12-.008-.296-.19-.322-.319-.027-.129.085-.302.291-.309.187-.007.276.115.383.224zm-.471-4.056c-.04.179-.215.27-.399.301-.109-.038-.255-.075-.234-.197.031-.178.129-.334.362-.31.139.015.308.04.271.206zm-.521-6.818c.2.049.476.25.503.42.028.182-.265.295-.481.235-.203-.056-.404-.15-.524-.331.126-.224.368-.357.502-.324zm-.376 14.932c.104-.034.287.016.223.147-.15.308-.425.513-.693.673-.171-.001-.273-.092-.25-.205.079-.379.4-.509.72-.615zm-2.022-37.551c.074-.075.124-.175.185-.263.019-.085.01-.197.062-.249.098-.098.046-.351.29-.3.063.013.167.024.179.06.068.195-.104.278-.214.381-.094.088-.209.154-.314.23 0 .066.004.133 0 .199-.007.123.056.274-.119.331-.032.01-.096-.011-.114-.038-.086-.126-.065-.239.045-.351zm.03 1.638c.066.095-.056.242-.151.264-.427.101-.414-.363-.843-.484.594-.276.813-.039.994.22zm-1.991-7.388c.019-.019.405-.078.516.184.123.292.666.358.501.766-.077.191-.435.262-.619.022-.294-.384-.379-.146-.472.124-.052.15-.056.334-.148.449-.13.162-.12.521-.42.457-.324-.07-.238-.389-.254-.748-.181-.646.511-.858.896-1.254zm-.948 5.684a.644.644 0 0 1 .321.188c.047.057-.019.17-.138.171l-.352-.182c.057-.063.132-.187.169-.177zm-.797.791c.302.173.69.226.88.563.074.132-.077.262-.142.227-.331-.178-.642-.394-.979-.608.082-.063.206-.202.241-.182zm.01 17.165c.05.002.138.064.139.1.002.153-.098.258-.233.301-.101.032-.165-.041-.171-.125.014-.19.104-.281.265-.276zm-.72 10.921c.073-.12.204-.205.326-.031.068.096.13.219-.007.294-.359.198-.525.759-1.236.507-.033-.02-.395.278-.417-.177-.025-.5.347-.307.576-.3.303.009.574.01.758-.293zm-.568-12.127c.024.117-.095.174-.188.222-.114 0-.167-.055-.169-.164-.002-.114-.009-.251.157-.222.077.014.186.097.2.164zm-.073-1.977c.183.319-.21.413-.411.561-.162.137-.315.31-.56.18-.144-.076-.177-.224-.131-.351.099-.27.322-.275.559-.207.06-.288-.257-.419-.286-.704.486-.163.677.256.829.521zm-1.237-5.589c.064-.064.154-.132.231-.045.157.179.378.323.319.627-.032.163-.079.298-.208.395-.186-.059-.211-.232-.272-.374-.081-.191-.296-.375-.07-.603zm.148 3.173c.05.442.722.887-.021 1.349-.255-.362-.326-.788-.489-1.173-.082-.194.042-.31.176-.372.166-.077.311-.011.334.196zM118.1 82.02c.189-.062.398.189.387.304-.022.224-.241.35-.562.379-.147.024-.347-.123-.293-.287.055-.17.282-.335.468-.396zm-.646 8.991a.28.28 0 0 1 .268.294c-.015.197-.093.322-.248.294-.137-.025-.339-.039-.313-.278.021-.18.117-.325.293-.31zm-.204 6.375c.025.132-.127.223-.27.244-.241-.102-.256-.302-.229-.513.017-.136.084-.293.235-.245.225.072.229.328.264.514zm-.237-3.918c-.034.127-.091.271-.249.257-.132-.011-.184-.152-.143-.255.044-.109.153-.192.216-.266.204.039.204.154.176.264zm-1.356-19.332c.156-.411.548-.541.926-.649.145-.041.314.147.271.227-.198.369-.586.505-.893.673-.208-.017-.356-.114-.304-.251zm-.126 2.169c.084-.144.223-.254.339-.379.059.093.178.194.165.276-.027.178-.183.284-.342.369-.066-.089-.237-.136-.162-.266zm-.025 18.595c-.01.079-.039.208-.085.221-.132.037-.186-.07-.191-.189-.004-.089.019-.172.212-.194.029-.001.076.067.064.162zm-.375-1.269c.1-.009.176.049.186.145.018.178-.137.119-.219.151-.082-.021-.21.014-.202-.099.009-.113.115-.187.235-.197zm-.718 2.549c.047-.134.075-.345.275-.326a.261.261 0 0 1 .228.337c-.045.132-.199.228-.304.339-.113-.11-.25-.203-.199-.35zm-.018-1.862c-.04.175-.133.272-.274.282-.202.014-.369-.088-.392-.29-.023-.198.199-.138.303-.187.188-.087.262.098.363.195zm-.471-12.874c.13-.005.217.048.197.195-.009.065.019.206-.125.085.025-.254-.32.127-.277-.163.019-.123.121-.114.205-.117zm-.589-8.273c.09.027.19.132.22.224.048.146-.1.203-.2.201-.106-.002-.215-.071-.201-.195.004-.144.037-.272.181-.23zm-.181 14.669c.072-.276.336-.281.508-.406.038-.028.263.102.304.2.087.204-.012.399-.161.559l-.419.451c.148.368.629.706.099 1.134-.088.071-.079.315-.276.182-.186-.126-.377-.266-.509-.443-.081-.109.034-.236.166-.314.22-.129.529-.196.461-.565-.346-.204-.253-.49-.173-.798zm-.507-11.487c.185.084.333.203.373.416.037.196-.106.276-.227.365-.291-.049-.35-.31-.435-.496-.102-.224.227-.148.289-.285zm-.503 42.119c-.009.24-.342.415-.644.357-.271-.052-.546-.169-.541-.502.005-.292.221-.359.464-.313.27.145.737.059.721.458zm-.667-16.048c.158-.016.256.085.291.233.031.132-.03.219-.164.251-.17-.011-.246-.11-.247-.27 0-.091.009-.202.12-.214zm-.133.905c.004.035-.03.098-.06.109-.249.086-.363-.085-.472-.261-.225.015-.4-.054-.395-.311.001-.062.125-.182.173-.173.17.033.257.158.225.343.036.026.083.045.107.079.107.146.393-.067.422.214zm-.747-24.156c.099.241.139.45-.014.703-.085-.29-.069-.481.014-.703zm.288 7.203c-.402.619-.767.057-1.195.017.432-.284.803-.305 1.195-.017zm-1.101 15.704c.081-.008.192-.014.183.169l-.192.232c-.063-.064-.156-.118-.182-.195-.051-.151.077-.195.191-.206zm-.38-2.93c-.245-.298-.497-.421-.266-.715.105-.134.259-.144.349-.048.25.264-.113.406-.083.763zm.012-4.547c.016.164-.167.243-.28.232-.135-.013-.302-.065-.373-.229.041-.141.105-.259.261-.278.208-.025.371.065.392.275zm-.562-3.328c-.118.009-.27-.039-.225-.167.048-.137.186-.249.307-.345.02-.015.153.113.228.171-.056.186-.122.327-.31.341zm.088-8.615c.093.249.032.485.126.704-.307-.2-.152-.477-.126-.704zm-.296 5.733c.235.124.168.376.225.659-.217-.198-.513-.189-.525-.457-.003-.068.245-.231.3-.202zm-.249 3.052c.025-.012.132.149.197.225-.052.179-.118.341-.284.369-.145.024-.164-.151-.173-.244-.018-.175.122-.284.26-.35zm-.375-14.538c.098-.035.165.039.175.247 0-.003-.019.086-.123.117-.157.046-.214-.085-.225-.185-.007-.055.099-.153.173-.179zm-.121 21.946c.036.161-.1.281-.306.31-.203-.245-.564-.365-.617-.74-.006-.045.091-.257.216-.162.245.187.627.236.707.592zm-.565-8.954c.102-.001.178.072.147.161-.031.091-.121.162-.206.267-.071-.121-.16-.208-.171-.304-.018-.172.134-.123.23-.124zm.155 5.252c.171.173.275.375-.05.589-.365.241-.395-.084-.45-.238-.132-.369-.502-.689-.372-1.067.314.253.619.46.872.716zm-.585-16.413c.197.023.191.169.17.306-.021.132-.084.246-.221.29-.143-.111-.215-.247-.19-.423.019-.139.108-.188.241-.173zm-.32-1.839c.12.107.125.269 0 .359-.303.22-.478-.125-.806-.162.311-.324.541-.433.806-.197zm-1.153 13.555c-.346-.314-.328-.611-.115-.917.066-.096.161-.075.226-.004.301.327.107.604-.111.921zm-.264-13.561c.086.023.17.137.207.23.038.096-.048.153-.077.157-.205.019-.281-.048-.293-.177-.012-.117.018-.249.163-.21zm-.533.749c1.047.662 1.114.851.647 1.887-.559-.12-.226-.449-.166-.714-.077-.434-.796-.595-.481-1.173zm.006 1.926c.005.19-.184.284-.312.352-.261-.018-.291-.16-.291-.338 0-.195.107-.316.277-.316.171 0 .322.157.326.302zm-.686-.888c.133-.008.217.034.226.177.008.129-.032.224-.177.232-.13.007-.21-.052-.226-.19-.016-.137.033-.21.177-.219zm.29 24.523c.006.027-.086.107-.139.115-.238.035-.288-.148-.445-.446.331.091.53.1.584.331zm-1.984-21.049c.198-.033.286.088.358.274-.008.18-.216.192-.324.24-.126.055-.255-.094-.267-.234-.013-.141.073-.253.233-.28zm.113 11.835c.142.085.377.096.411.325h.021v.017c.251-.086.431.161.684.147.192-.011.169.171.051.278-.168.152-.164.587-.559.378-.201-.106-.38-.254-.567-.386-.015-.002-.025.002-.042 0v-.026c-.232-.124-.461-.255-.391-.584.051-.242.291-.21.392-.149zm-1.267 2.387c.269-.24.506-.515.766-.765.059-.057.098-.243.238-.095.06.063.093.152.132.22-.241.437-.562.78-.921 1.089-.16.138-.161-.056-.224-.12-.112-.114-.135-.2.009-.329zm-.247 9.747c.155-.004.256.121.213.272-.04.139-.04.334-.258.365-.134-.092-.243-.208-.227-.381a.279.279 0 0 1 .272-.256zm-.687-2.505c.146.008.363.073.405.265.044.203-.101.275-.287.276-.183.002-.369.019-.473-.192.095-.137.164-.359.355-.349zm-.417 4.176c.004-.152.097-.184.227-.177.139.008.213.069.183.214-.026.126-.103.2-.438.188.046.003.025-.102.028-.225zm.145-6.673c.047.008.121.087.116.125-.019.145-.11.251-.26.271-.134.018-.126-.097-.14-.175.017-.184.126-.249.284-.221zm.267 7.685c.162-.031.373.174.34.262-.113.304-.454.402-.693.595-.118.096-.175-.066-.2-.176.106-.296.201-.614.553-.681zm-1.4-34.749v.967c-.159-.387-.133-.604 0-.967zm.129 25.68c.248.049.247.295.293.466.055.204-.201.196-.306.322-.193-.121-.232-.3-.235-.5-.004-.175.016-.334.248-.288zm-2.138 5.82c.152.019.249.172.241.362-.008.172-.063.387-.205.387-.208 0-.229-.223-.214-.426.037-.111-.09-.357.178-.323zm.178-1.688c-.082-.096-.171-.162-.202-.248-.033-.092.035-.16.143-.163.125-.004.23.052.231.175 0 .066-.094.134-.172.236zm-.088-1.275c-.163-.019-.267-.177-.265-.345.002-.171.113-.318.289-.301.16.015.271.144.262.332-.054.147-.096.337-.286.314zm-.294-28.855c.066.057.114.136.194.235-.342.315-.399.81-.78 1.086-.077.056-.16.09-.213-.033-.035-.082-.11-.23-.097-.238.367-.23.282-.735.608-.989.097-.077.173-.159.288-.061zm-1.285 24.333c1.204 1.251 1.206 1.262.209 2.033.132-.734-1.268-1.188-.209-2.033zm.103 9.026c.199.183.111.412.024.774-.209-.279-.392-.416-.241-.671.047-.08.136-.178.217-.103zm.36-35.292c.264.038.287.337.297.582.009.22-.045.394-.272.469-.293-.093-.373-.378-.383-.584-.007-.155.108-.503.358-.467zm-.931 2.69c.105-.161.199-.384.431-.376.15.005.129.186.095.273-.073.188-.206.339-.4.393-.153-.068-.181-.205-.126-.29zm-2.978 6.951c.09-.001.187.035.186.148-.001.124-.099.207-.203.199-.062-.005-.116-.118-.157-.163-.006-.158.087-.183.174-.184zm-.186 10.838c.118.024.273.095.233.261-.03.123-.112.255-.267.248-.161-.008-.195-.154-.239-.278.043-.14.123-.262.273-.231zm-.735-9.218c.26.038.348.298.417.511.056.172-.113.269-.232.372-.288-.112-.341-.375-.434-.589-.091-.211.116-.313.249-.294zm-.294-3.416c.052.213.076.37-.03.507-.014.019-.142-.009-.165-.046-.121-.204-.006-.333.195-.461zm-.718.972c.188-.007.211.115.208.259-.003.137-.126.228-.207.216-.126-.018-.237-.123-.205-.262-.014-.18.082-.208.204-.213zm-.619 21.033c.106-.367.388-.283.706-.217-.181.23-.118.628-.515.608-.135-.008-.237-.23-.191-.391zm.063 16.866c.052.125-.058.318-.184.315-.268-.007-.333-.262-.47-.459.301-.149.534-.144.654.144zm-.419-27.974c-.001-.123.105-.188.228-.174.116.014.109.12.115.204.008.12-.073.143-.206.148-.04-.048-.136-.113-.137-.178zm-.034-9.698c.023-.051.161-.074.244-.072.175.005.133.159.131.257-.006.469-.241.863-.443 1.265-.04.079-.123.134-.222.062-.2-.146-.165-.361-.16-.614-.07-.37.308-.578.45-.898zm-.599 2.344c.03.131-.085.197-.212.327-.032-.057-.076-.11-.091-.171-.033-.131.031-.224.158-.245.044-.007.136.048.145.089zm-.309-5.622c.217.016.161.175.181.298.014.19-.092.317-.226.429-.068-.137-.212-.234-.195-.418.016-.16-.012-.327.24-.309zm-.706 5.531c.113.018.318-.06.301.136-.014.156-.084.377-.296.38-.119.001-.218-.13-.221-.309-.024-.143.041-.235.216-.207zm-.489 29.56c.046-.144.1-.335.303-.308.144.019.092.179.095.195.039.252-.059.388-.187.396a.214.214 0 0 1-.211-.283zm-.463-31.193c.084-.005.253.123.246.174-.018.154-.141.266-.283.337-.139-.013-.21-.101-.189-.222.023-.127.085-.281.226-.289zm-1.545-3.756c.137.006.211.062.203.203-.011.179-.101.315-.281.322-.17.007-.11-.158-.132-.244.001-.156.008-.289.21-.281zm-.366-2.352c.049-.002.135.051.144.093.031.138-.078.201-.184.245-.01.004-.059-.085-.072-.104-.016-.132-.008-.23.112-.234zm-.255 11.906c.172.008.192.167.256.276-.004.141-.136.26-.197.238-.115-.042-.226-.156-.196-.323.016-.088.005-.197.137-.191zm-.915-4.812c.13-.129.282.016.312.124.086.307.524.528.195 1-.248-.263-.279-.604-.56-.771-.042-.025-.018-.282.053-.353zm-.4-1.845c.119 0 .2.076.208.221-.019.104-.092.195-.21.197-.12.002-.206-.09-.206-.21a.2.2 0 0 1 .208-.208zm-1.576 28.313c.175-.105.168.117.249.195-.005.159-.109.249-.245.247-.13-.002-.263-.08-.282-.233-.024-.2.184-.152.278-.209zm-.155-18.15c-.012-.163.077-.208.205-.195.077.008.205-.023.19.114-.015.136-.088.259-.246.26-.111.003-.131-.102-.149-.179zm.551 19.223c.07.011.126.109.188.167l-.389.317c-.161-.016-.199-.102-.185-.195.033-.216.174-.323.386-.289zm.715 1.067l-.858-.164c.307-.108.603-.206.858.164zm-.018 3.959c.218-.101.172.135.279.205-.138.257-.25.558-.524.674-.138.058-.396-.108-.363-.289.056-.307.333-.463.608-.59zm.003-.346c-.16.157-.277-.081-.333-.21-.092-.209.626-.927.864-.889.115.018.151.075.141.225-.205.275-.404.611-.672.874zm.398-30.649c.017.143-.098.243-.218.318-.102-.009-.163-.053-.181-.163a.299.299 0 0 1 .177-.339c.114-.049.211.094.222.184zm-.51-8.627c.125-.056.229.104.225.175-.017.305-.337.308-.501.469-.145-.032-.281-.094-.261-.242.042-.294.332-.309.537-.402zm-.26 5.546c.156-.031.236.137.233.311-.004.196-.157.245-.245.34-.203-.089-.293-.193-.304-.377-.015-.24.222-.255.316-.274zm-.372 7.276c.091.006.181.015.165.287-.002.001-.097.087-.202.101-.131.017-.192-.098-.193-.222-.002-.157.108-.173.23-.166zm-.222-.708c.003.209-.093.456-.262.445-.199-.013-.403-.216-.423-.456-.018-.219.203-.332.32-.491.167.136.359.251.365.502zm-.417 7.146c-.009.181-.101.305-.274.34-.136.027-.179-.116-.256-.192.142-.104.191-.323.399-.34.133-.012.115.108.131.192zM80.8 80.266c.096.027.281.007.308.235-.051.059-.107.187-.192.212-.173.05-.221-.1-.22-.236.001-.079-.062-.259.104-.211zm.054 1.098c.092-.12.224-.06.284.042.272.463-.245.642-.332 1.058-.436-.483-.185-.796.048-1.1zm-.464-4.676a.32.32 0 0 1 .111-.062c.124.163.057.339-.005.511.007-.163-.316-.257-.106-.449zm.143 13.612c-.034.233-.232.372-.422.439-.266-.054-.489-.22-.447-.382.051-.194.269-.359.545-.329.182.02.348.113.324.272zm-.577 25.813c-.348-.214-.156-.549-.311-.748-.011-.231-.395-.526-.115-.642.339-.141.091.417.345.506.244.262.118.538.081.884zm.191-29.865c.016.136-.051.212-.188.185-.12-.01-.203-.094-.163-.171a.426.426 0 0 1 .253-.193c.157-.039.09.113.098.179zm-.37-5.606c.026-.026.136-.007.175.027.268.231.09.426-.1.718-.159-.304-.307-.516-.075-.745zm-.071 8.028c-.03.147-.143.288-.392.241-.11-.034-.276-.098-.233-.293.034-.153.141-.287.342-.25.17.031.319.121.283.302zm-1.891 6.016c.25.27.088.495-.16.85-.091-.338-.416-.493-.17-.786.032-.037.187-.218.33-.064zm-.297-3.513c.038-.088-.02-.267.13-.262.218.008.293.181.286.386-.004.119-.037.263-.175.235-.16-.032-.269-.159-.241-.359zm.963 18.669c.122-.038.124.094.143.152-.004.254-.157.348-.346.388-.083.018-.215 0-.195-.121.036-.218.197-.357.398-.419zm-.263-20.131c.045-.143.189-.11.293-.09.109.02.134.114.073.206-.058.089-.1.214-.237.185-.137-.073-.163-.193-.129-.301zm.11 27.68c.061.143-.1.319-.249.441-.227-.124-.445-.263-.516-.508-.029-.102.068-.272.23-.287.265-.026.451.159.535.354zm.514 5.796a.967.967 0 0 1-.766.017c.262-.139.495-.085.766-.017zm-.245-6.376c-.082-.407-.491-.684-.097-1.068.132-.128.259-.05.344.06.302.385.101.666-.247 1.008zm.01-22.845c-.09-.071-.142-.154-.065-.287.228-.4.399.197.604.006-.14.283-.266.497-.539.281zm-.232-13.473c-.013-.012.114-.257.171-.255.378.015.508.347.792.633-.446.008-.721-.155-.963-.378zm.922-1.321c.04.272-.105.439-.176.41-.304-.124-.674-.209-.819-.532-.08-.177.15-.203.301-.228.382-.064.429.379.694.35zm-.594-1.586c.208.003.186.148.201.278.03.273-.175.282-.349.286-.155.004-.227-.124-.268-.264.121-.123.194-.303.416-.3zm-.377 9.284c.025.256-.164.361-.259.598-.152-.223-.32-.408-.233-.56.087-.151.322-.056.492-.038zm-.649-5.912c.103-.013.199.106.179.236-.042.277-.257.263-.461.255-.132-.005-.271-.009-.278-.184.114-.26.351-.279.56-.307zm-.478 14.624c.025-.02.159.032.166.067.033.16.035.325-.222.429-.032-.173-.122-.354.056-.496zm.047 15.083c.129-.009.127.097.138.185.019.16-.089.248-.19.34-.065-.085-.173-.166-.183-.257-.014-.138.076-.257.235-.268zm-2.078-24.349c.261.116.514.338.659.582.058.098-.253.276-.462.362-.253-.104-.472-.24-.475-.572-.001-.206.119-.443.278-.372zm-1.83 5.653c.054 0 .142.047.156.091.027.089-.01.173-.055.18-.165.013-.25-.007-.267-.117-.02-.124.08-.154.166-.154zm.175 19.468c-.012.087-.027.175-.139.183-.122.009-.136-.081-.139-.169-.003-.118.032-.23.174-.216.103.01.109.113.104.202zm-.42-2.805c-.003.117-.058.208-.227.22a12.136 12.136 0 0 0-.124-.195l.278-.166c.026.047.074.095.073.141zm-.607-25.909c.108-.079.124-.401.373-.202.191.153.102.326-.016.473-.148.184-.312.355-.498.564-.141-.36-.123-.641.141-.835zm-.103 9.56c.154-.031.161.114.173.238-.022.091.019.254-.143.242-.094-.007-.248-.106-.256-.177a.292.292 0 0 1 .226-.303zm-.252-15.388c-.05.391-.406.352-.606.688.013-.56.165-.763.606-.688zm-.659 2.26c.208-.266.427-.086.738.028-.281.196-.439.432-.717.276-.106-.06-.086-.22-.021-.304zm.247 9.052c.015-.079.061-.185.124-.216.131-.063.121.077.146.113.014.134.001.229-.108.253-.111.025-.182-.043-.162-.15zm.002 2.66c.011.084-.043.118-.119.124-.106-.015-.17-.081-.144-.183.013-.05.087-.109.141-.119.143-.025.112.1.122.178zm-.087-5.93c.346-.084.272.267.236.389-.119.406-.302.793-.479 1.234-.336-.37-.125-1.534.243-1.623zm-.526 3.023c.134-.011.2.038.187.147-.007.057-.053.109-.082.164-.062-.056-.137-.103-.177-.171-.015-.026.05-.1.072-.14zm-.074-3.564c-.009.113-.046.225-.216.194-.086-.056-.187-.126-.152-.254.035-.127.095-.278.268-.227.133.039.109.182.1.287zm-.048-3.738c.14.005.212.213.185.394-.024.157-.087.259-.269.243-.111-.064-.292-.095-.26-.262.034-.179.169-.381.344-.375zm-.427-1.796c.121.023.196.179.191.335-.034.129-.092.288-.234.259-.121-.025-.203-.169-.183-.331.018-.147.1-.288.226-.263zm-.402 9.947c.144-.014.136.16.139.261.003.149-.114.22-.19.268-.178.001-.197-.093-.189-.181.014-.159.069-.332.24-.348zm-.646-5.951c-.025-.167-.01-.326.237-.303.215.02.161.178.187.405.013.095-.108.241-.262.252-.267.019-.143-.223-.162-.354zm.188 3.166c.04-.009.162.126.155.185-.01.092-.06.22-.211.201-.091-.053-.235-.1-.199-.214.024-.079.158-.149.255-.172zm-.745 4.198c.002.048-.046.097-.092.183-.072-.088-.136-.142-.163-.211-.009-.024.066-.108.116-.124.126-.039.136.074.139.152zm-5.832-9.317c.046-.038.208-.019.247.03.146.183.04.333-.187.529.059-.234-.305-.353-.06-.559zm-5.445-1.255c-.357-.225-.282-.621-.402-.926.215.253.671.418.402.926zm-.518.196c.134-.035.217.06.18.185-.029.096-.122.172-.186.257l-.205-.185c-.003-.189.115-.233.211-.257zm-.177 5.354c.068.075.187.148.192.227.005.094-.088.193-.139.293-.121-.067-.246-.121-.224-.24.019-.101.111-.188.171-.28zm.199 9.331c-.027.072-.103.126-.193.228-.049-.107-.121-.191-.103-.246.021-.066.112-.139.184-.153.122-.023.143.091.112.171zm-.469 22.257c.247.045.584.062.628.403.036.28-.286.419-.437.444-.255.042-.377-.25-.494-.48.104-.126.057-.411.303-.367zm-1.548-34.256c.041-.09.134-.156.203-.233.058.096.158.191.161.29.003.076-.114.156-.184.242-.091-.114-.245-.159-.18-.299zm-.94 1.716c.096.036.212.098.185.232-.022.109-.089.211-.224.187-.128-.022-.175-.118-.161-.245.016-.116.05-.23.2-.174zm-.834 21.821c.095-.182.204-.408.485-.385.159.013.177.127.156.237-.045.237-.218.365-.417.455-.148-.069-.282-.197-.224-.307zm-.431-17.695c.114.017.103.119.11.203-.008.121-.046.216-.191.204-.096-.008-.174-.059-.154-.164.024-.124.053-.271.235-.243zm-.842 16.649c.11-.161.027-.508.39-.452.167.026.171.149.118.251-.097.191-.122.435-.34.549-.118-.098-.259-.216-.168-.348zm-.209 11.346c.042-.147.172-.185.321-.174.117.009.171.078.131.17-.05.116-.111.249-.279.243-.098-.052-.209-.115-.173-.239zm-.046-8.612c-.126-.037-.18-.124-.179-.252.001-.112.067-.177.167-.155.117.025.188.123.191.245.003.111-.084.148-.179.162zm0-26.307c.109 0 .246-.008.222.15a.279.279 0 0 1-.264.247c-.126.008-.115-.103-.13-.161-.014-.151.028-.236.172-.236zm-.356 24.794c.07-.12.232-.207.409-.083.356.252-.021.461-.075.706-.11-.227-.53-.288-.334-.623zm-1.481 6.953c.014.179-.078.287-.237.352-.117-.059-.315-.082-.285-.229.03-.151.053-.387.241-.422.167-.032.267.122.281.299zm-.355-1.757c-.165-.1-.327-.218-.311-.42.006-.071.168-.184.255-.181.169.005.284.115.276.316-.006.156-.077.244-.22.285zm-.061-2.022c-.087-.195-.394-.33-.167-.568.086-.09.28-.202.366-.094.202.251-.068.439-.199.662zm.145-1.28c-.005.1-.042.165-.152.166-.151-.035-.207-.158-.236-.284-.032-.139.094-.114.17-.123.179-.022.225.086.218.241zm-.067-4.206c-.299.134-.557.102-1.001.029.434-.122.692-.104 1.001-.029zm-1.966 4.158c.216.003.241.22.241.414 0 .212-.009.471-.259.459-.233-.012-.131-.29-.17-.457.046-.15-.1-.421.188-.416zm-1.828 5.247c-.089-.369-.453-.584-.145-.922.059-.065.146-.12.224-.029.249.294.212.59-.079.951zm.453 2.437c.268.3.326.573.115.872-.111.158-.185.016-.255-.051-.355-.336.004-.532.14-.821zm-1.094-.537c-.065.312.752.24.273.692-.121.114-.219.437-.467.186-.353-.359.063-.582.194-.878zm-.198-.726c-.008-.167.047-.254.227-.242.139.01.208.069.185.185.011.189-.091.3-.22.302-.083.002-.186-.109-.192-.245zm.875-4.044c-.002.123-.083.205-.248.24-.128-.004-.185-.12-.208-.258-.025-.147.062-.197.194-.204.16-.008.265.056.262.222zm-.204-1.01c-.033.094-.131.166-.187.232-.145-.029-.19-.102-.201-.199-.016-.144.067-.207.197-.213.121-.006.247.021.191.18zm-.271-8.171c.139-.006.164.127.164.246 0 .136-.085.199-.228.235-.061-.074-.172-.149-.189-.242-.029-.164.125-.234.253-.239zm-.115 10.206c.244-.05.392.172.33.297-.065.131-.318.213-.497.232-.171.018-.241-.16-.262-.289.045-.321.275-.208.429-.24zm-.892-4.409c.069-.198.286-.229.449-.095.337.276.091.563-.04.901-.255-.259-.531-.454-.409-.806zm.181 3.143c-.025.367.07.675-.133.973-.14-.31-.258-.619.133-.973zm-.124 6.7c.002.155-.09.254-.211.333-.091-.063-.211-.102-.209-.245.003-.17.101-.245.259-.256.119-.008.159.064.161.168zm-1.033-35.305c.336.199.485.969.246 1.215-.161.166-.31-.046-.29-.077.246-.374-.215-.773.044-1.138zm.08 13.459c.285-.085.502.029.56.352.174.224.162.453.018.686-.245.099-.106.642-.408.511-.296-.129-.607-.479-.678-.787-.055-.241.144-.654.508-.762zm.355 19.311v.931a1.263 1.263 0 0 1 0-.931zm-.101-8.021c-.001.152-.131.231-.256.263-.182.046-.166-.173-.271-.199-.027-.232.127-.26.247-.268.127-.008.281.031.28.204zm-1.169-11.63c.167.002.254.099.292.23.057.197-.128.26-.269.455-.097-.177-.188-.292-.222-.421-.037-.139-.001-.266.199-.264zm-.279 12.658c.06-.117.257-.062.364.038.283.266.076.491-.085.793-.198-.332-.425-.545-.279-.831zm-.035 7.556v-.654c.185.261.052.474 0 .654zm.139-14.101c.115-.024.22.002.243.151.029.188-.104.274-.199.376-.171-.023-.285-.123-.319-.245-.059-.209.126-.251.275-.282zm-1.79-19.776c.149-.075.167.119.2.197.066.155-.069.256-.188.301-.134.051-.195-.075-.256-.201.075-.097.136-.243.244-.297zm-1.055 7.447c-.009.11-.117.118-.209.124-.155-.015-.161-.128-.161-.246 0-.104.043-.189.153-.171.152.026.229.145.217.293zm-.582-2.783c.206.009.333.108.352.248.016.255-.091.303-.247.304-.188.002-.305-.071-.294-.275.007-.127-.021-.286.189-.277zm.044 5.768c.125.02.217.11.159.241-.04.091-.138.156-.198.219-.169-.063-.219-.163-.202-.286.019-.13.118-.194.241-.174zm-.029 24.56c.139-.026.202.05.207.192.006.198-.041.363-.235.46-.157.014-.183-.103-.187-.217-.005-.18-.039-.388.215-.435zm.037 2.336c-.175-.12-.429-.273-.363-.502.115-.398.462-.652.809-.852.1-.058.232.106.256.249.022.127-.597 1.107-.702 1.105zm.707 1.386c-.054.005-.172-.108-.17-.163.009-.186.137-.317.307-.372.094-.03.156.052.149.212-.013.137-.077.302-.286.323zm.214-3.31c-.197 0-.207-.133-.202-.272.028-.109-.019-.277.148-.263.177.015.266.15.266.337 0 .149-.081.198-.212.198zm.097-2.329v-.767c.133.22.169.439 0 .767zm.047-28.995a.284.284 0 0 1-.195-.314c.017-.085.143-.195.233-.208.203-.03.163.152.179.265-.017.143-.027.309-.217.257zm.24 32.922c-.066-.365-.106-.667.35-.822.264-.089.213.153.22.183.089.453-.268.514-.57.639zm.925-34.306c-.04.198-.171.337-.387.289-.102-.023-.186-.128-.218-.152.009-.343.227-.445.394-.478.147-.028.244.175.211.341zm.174 36.162c-.098.001-.178-.049-.16-.156.013-.077.065-.179.129-.209.128-.061.135.063.145.146.012.092.003.182-.114.219zm.344-1.389c-.119-.057-.23-.129-.235-.279-.003-.108-.002-.252.154-.232.132.017.244.11.258.262.011.124-.048.212-.177.249zm.66 1.639c-.111-.151-.058-.302-.038-.532.208.21.285.349.038.532zm.014-1.221c-.079.087-.184.195-.283.101-.1-.094-.106-.25.015-.367.149-.144.392-.198.333-.508-.156-.821.354-.812.918-.711-.042.739-.592 1.056-.983 1.485zm.906-10.408c-.231-.03-.273-.312-.292-.533-.017-.199.083-.347.277-.227.144.089.465.011.402.377-.069.165-.2.407-.387.383zm.457 9.32c.161.013.34.125.297.288-.038.144-.017.377-.268.428-.169-.038-.247-.175-.224-.334.021-.139-.131-.408.195-.382zm.054 2.661c-.106.044-.161-.032-.199-.12-.014-.107.029-.18.138-.174.057.003.137.038.161.083.052.096-.014.174-.1.211zm1.095.225c-.15.039-.408.113-.494-.084-.076-.173-.048-.381.144-.549.266-.233.537-.495.322-.973-.259.123-.544.263-.877.241-.359-.023-.423-.266-.204-.406.499-.318.521-1.118 1.313-1.168.294-.018.011-.46.016-.71.347.125.714.21.38.724-.129.198-.02.515.21.58.879.248.305.603.087.927-.044.065-.174.063-.158.255.375-.222.546.337.948.195-.458.539-1.052.801-1.687.968zm1.408-28.108c-.011-.02-.08-.114-.114-.219-.053-.163.063-.191.188-.192.132-.001.223.052.208.2-.009.09-.026.186-.282.211zm.629 14.415c.135.006.215.053.2.195.017.168-.098.25-.202.339-.066-.087-.167-.166-.191-.264-.031-.131-.014-.279.193-.27zm.283 7.42c-.007.019-.131.024-.172-.006-.344-.247-.133-.502-.045-.798.365.237.324.517.217.804zm.125-2.899c-.098-.041-.223-.125-.189-.25.026-.096.13-.17.2-.254.099.091.217.17.208.33-.032.112-.073.236-.219.174zm.517.882c-.205-.07-.304-.181-.303-.358.001-.224.143-.314.345-.332.202-.017.2.127.206.266.011.212-.125.318-.248.424zm.551 6.967v-.81c.134.271.157.541 0 .81zm-.09-5.73c-.211-.008-.326-.128-.347-.303.001-.292.199-.235.343-.242.176-.008.328.084.322.263-.005.163-.128.289-.318.282zm.49 5.04c-.023-.289.063-.341.192-.33.078.006.209-.018.185.119-.022.124-.065.276-.235.267-.084-.004-.166-.066-.142-.056zm.401.519c-.018.072-.099.127-.176.218-.044-.082-.082-.127-.092-.178-.02-.095.01-.174.12-.192.118-.018.17.063.148.152zm.198 1.23c-.121-.008-.238-.057-.169-.196.07-.142.213-.217.38-.219.114-.001.144.072.143.172-.077.138-.173.254-.354.243zm.557-1.105c-.166.013-.221-.066-.206-.194.009-.082.017-.182.132-.196.137-.016.2.085.231.186.044.143-.069.181-.157.204zm-.797-2.969c-.102.083-.198.282-.395.102-.146-.134-.171-.322-.085-.436.393-.527.822-1.021 1.417-1.342.413-.222.344.199.485.323.017.183-.111.242-.218.331-.405.336-.796.69-1.204 1.022zm1.274.837c.241.286.066.53.052.725l-.052-.725zm.555 1.337c-.047.119-.129.236-.292.232-.096-.052-.212-.121-.177-.233.043-.135.171-.189.325-.173.119.014.176.093.144.174zm.356 1.605c-.236-.247-.32-.482-.079-.737.112-.119.272-.124.353.005.223.355-.079.518-.274.732zm.304 1.1c-.15-.082-.236-.181-.235-.329.001-.191.125-.31.294-.311.147-.001.266.168.232.283-.04.137-.191.241-.291.357zm-.225-2.78c-.147.098-.288-.349-.221-.432.281-.354.6-.691.959-.963.177-.134.392.034.577.247-.465.42-.852.84-1.315 1.148zm1.275-.232c.247-.197.36-.024.393.091.194.676-.589.58-.751.988-.508-.612-.009-.786.358-1.079zm.048 3.824c-.169.075-.365-.334-.333-.487.088-.431.515-.558.876-.652.128-.033.328.208.542.356-.395.299-.707.615-1.085.783zm1.367-3.901c-.141.011-.875-.835-.83-.976.046-.143.177-.252.319-.181.327.161.622.379.709.765.039.167-.041.306-.198.392zm.331-3.721c-.149.48-.112 1.027-.477 1.429-.098.108-.179.309-.368.248-.222-.072-.031-.288-.097-.362-.053-.615.377-.982.546-1.453.042-.116.147-.053.23-.036.096.019.197.074.166.174zm.106-2.527c-.043.103-.047.298-.207.283-.091-.009-.184-.131-.165-.256-.024-.151.028-.237.176-.224.114.011.257.05.196.197zm.416-4.482c.106.001.191.052.157.153-.03.089-.122.157-.199.249-.082-.104-.173-.167-.183-.242-.02-.156.107-.162.225-.16zm.154 12.444c-.164-.041-.251-.181-.251-.404.004-.105.125-.27.211-.221.133.077.352.173.315.387-.019.117-.111.279-.275.238zm-.103-1.755c.013-.048.091-.12.122-.112.203.052.174.27.259.418-.16-.076-.469.006-.381-.306zm.052-1.974c-.117-.004-.253-.085-.167-.207.107-.152.095-.429.332-.438.089-.004.232.147.195.242-.038.284-.147.41-.36.403zm1.122 6.295a.836.836 0 0 1-.355-.514c-.023-.103-.014-.265.142-.23.203.045.325.225.396.411.057.146-.043.253-.183.333zm.548-1.262c-.086-.105-.236-.196-.196-.361.021-.086.101-.245.209-.19.118.06.275.163.238.344-.023.112-.112.19-.251.207zm-.002-1.574c-.206-.079-.38-.143-.385-.323-.008-.265.276-.302.425-.343.209-.057.283.186.296.363.021.279-.322.097-.336.303zm.888-1.572c.011.142-.078.293-.207.274-.194-.028-.235-.245-.333-.374.087-.183.195-.274.374-.26.266.022.155.226.166.36zm.418-6.473c-.107.036-.155-.043-.209-.206-.013-.083.15-.053.215-.118.054-.054.12-.022.127.055.011.112-.007.227-.133.269zm.05-26.314c-.083.045-.187-.085-.185-.245.028-.16.15-.244.325-.213.095.017.243.04.215.197-.031.188-.231.194-.355.261zm.71-1.015c-.05-.004-.115-.123-.129-.198-.021-.113.083-.141.17-.148.094-.008.171.027.166.145-.027.112-.096.209-.207.201zm.27-3.934c-.102.08-.113.376-.324.194-.404-.349.079-.572.081-.973.29.297.683.431.243.779zm.983 4.302c.111.208.091.367-.165.493-.109-.223-.038-.368.165-.493zm-.007 31.262c-.103-.106-.242-.168-.196-.296.031-.087.14-.146.214-.218.06.093.162.185.166.28.003.075-.117.154-.184.234zm.603-33.622c-.071.147-.097.346-.305.391-.119-.077-.251-.209-.201-.31.054-.11.224-.179.356-.228.088-.033.195.055.15.147zm.026-1.815c-.003.022-.005.045-.009.067-.039.25.12.542-.136.741-.044.034-.218-.006-.236-.05-.13-.323.142-.518.27-.76.006-.041-.002-.103.021-.118.147-.099.211-.389.471-.234.066.04.147.166.128.22-.098.269-.34.078-.509.134zm.973 40.82c-.136.008-.168-.122-.144-.238.028-.132.128-.168.251-.139.097.022.145.086.129.226-.065.044-.147.146-.236.151zm.249-19.617c-.108.29-.353.289-.668.234.151-.204.111-.558.476-.459.093.026.244.085.192.225zm.167-6.959c-.158-.049-.282-.122-.295-.318-.013-.197.096-.234.253-.217.125.014.286-.035.301.178.014.193-.094.289-.259.357zm.685-15.187c.045.005.111.072.118.119.016.104-.064.152-.191.172-.018-.03-.065-.073-.07-.121-.009-.095.032-.183.143-.17zm.183 40.911c-.205-.016-.364-.168-.312-.347.078-.274.408-.306.629-.412.173-.084.334.125.315.329-.035.368-.406.293-.632.43zm.985 3.039c-.127-.232-.089-.449-.017-.719.116.264.124.48.017.719zm-.07-40.442c-.203-.026-.144-.196-.145-.315-.002-.121-.056-.319.152-.307.179.011.25.185.261.349.012.169-.123.228-.268.273zm1.363.618c-.16.006-.249-.066-.255-.192-.01-.2.183-.261.309-.321.135-.064.167.125.186.207.049.199-.109.262-.24.306zm1.7 33.256c-.128-.44-.536-.521-.419-.894.042-.133.195-.101.296-.06.386.16.27.45.123.954zm.025-29.712c-.066-.008-.119-.123-.162-.172-.007-.163.088-.171.178-.171.09.001.199.008.19.135-.009.117-.091.221-.206.208zm.583-5.974c-.125-.062-.226-.162-.216-.307.009-.13.091-.3.22-.272.085.018.153.209.188.334.037.131-.081.195-.192.245zm.264 41.165c-.127-.398-.076-.745-.002-1.096.079.345.125.695.002 1.096zm.347-46.4c-.018-.186.086-.239.245-.229.132.008.312-.004.283.188-.019.123-.138.234-.325.228-.107.005-.189-.046-.203-.187zm.147 2.683c-.019-.167.127-.157.235-.147.101.009.249-.05.283.1.039.176-.121.217-.241.284-.152-.008-.26-.095-.277-.237zm.266 17.275c.026-.382.47-.263.617-.504.106.082.285.197.194.31-.168.208-.407.357-.585.505-.254-.027-.235-.181-.226-.311zm.487 2.195c-.183-.289-.487-.387-.281-.707.046-.072.132-.161.227-.083.243.201.108.434.054.79zm.526 17.942c-.115-.265-.453-.402-.192-.702.03-.035.171-.239.326-.048.236.29-.011.469-.134.75zm.43-23.436c-.126-.027-.186-.118-.197-.269.002-.137.11-.145.231-.139.145.008.19.097.183.227-.007.14-.075.212-.217.181zm.196 27.542c.272-.163.449-.127.629 0h-.629zm.339-15.256c-.099-.322.118-.526.362-.561.449-.064.83.452.808 1.034-.017.457-.439.301-.659.355-.327.082-.502-.244-.511-.828zm.8 1.777c-.153-.065-.344-.149-.27-.521-.005.021.025-.126.173-.044.151.083.449.055.378.357-.028.118-.131.272-.281.208zm.92 15.268c.23-.212.64.054.797-.344l.093.13c-.207.443-.597.164-.89.214zm-.213-5.211c-.194.197-.255-.072-.365-.146-.189-.127-.251-.316-.218-.539.031-.206.194-.148.318-.161 1.018-.1 1.468.19 1.622 1.198-.438-.51-.802-.915-1.357-.352zm1.22-36.356c.027-.26-.161-.5.14-.623.056-.023.198.036.223.091.126.279-.069.393-.363.532zm1.483 7.389c-.13-.014-.182-.117-.145-.244.027-.093.093-.156.201-.139.126.019.097.128.116.188-.015.123-.076.205-.172.195zm.465 8.263c.001-.215-.152-.462.145-.622.084-.045.209-.025.233.069.074.291-.034.491-.378.553zm.343-1.335c-.182.005-.179-.159-.221-.238-.018-.165.07-.187.16-.183.154.006.246.084.232.251-.009.102-.078.167-.171.17zm.761 24.608c-.151.009-.263-.085-.252-.242.005-.067.103-.185.153-.182.142.008.234.114.287.292-.056.042-.119.128-.188.132zm.287-5.298c-.334.212-.564.014-.634-.24-.076-.275.203-.521.369-.706.194-.216.307.107.435.235.149.149.423.218.329.521.209-.046.413-.325.628-.002.156.235-.046.337-.173.43-.395.29-.405-.159-.566-.317-.132.025-.284.013-.388.079zm.469 3.422c.093.529.891.79.513 1.547-.657-.364-.599-.95-.513-1.547zm.403 7.959c.453-.095.713-.143 1.001-.021-.28.152-.539.072-1.001.021zm1.218.534c.193-.105.377-.108.601.031-.268.058-.438.1-.601-.031zm.696-7.128c-.055-.071-.164-.15-.171-.237-.008-.114.104-.19.23-.163.124.027.177.119.154.246-.019.1-.093.14-.213.154zm.62-.451c-.134-.049-.135-.137-.13-.221.005-.1.059-.165.165-.145.102.02.148.104.112.193-.028.071-.102.123-.147.173zm.613.581c-.244.005-.16-.174-.189-.29-.069-.285.137-.405.332-.486.044-.018.357.048.317.229-.054.243-.262.411-.46.547zm.617-2.303c-.297.188-.398.443-.61.932-.034-.435-.09-.633-.399-.558-.285.069-.574.118-.794.339-.092.092-.218.109-.306.02-.115-.116.002-.222.087-.272.509-.304.823-.762 1.124-1.261.199-.33.516-.264.8.017.258.258.448.562.098.783zm2.147 1.36c-.107.123-.201.155-.344.041-.211-.17-.439-.318-.719-.518-.134.443-.283.82-.353 1.21-.046.256-.266.307-.379.303-.245-.008-.134-.242-.113-.38.079-.537.048-1.072.709-1.387.648-.309.879.115 1.217.435.104.098.069.197-.018.296zm.227-.838c-.023-.002-.047.002-.068-.005-.156-.052-.382.113-.467-.135-.025-.072.009-.238.045-.247.218-.056.36.092.494.238.357.006.726-.052 1.034.199-.41.535-.67.524-1.038-.05zm.629 2.865c-.079.026-.203-.082-.249-.103.094-.271.148-.399.307-.411.125-.01.135.093.14.185.009.155-.079.29-.198.329zm.489 1.277c-.093-.295-.438-.473-.201-.796.053-.072.253-.066.296.038.098.241.386.513-.095.758zm.394-7.753c-.012.107-.104.165-.193.12-.254-.129-.474-.291-.306-.635.23.11.542.142.499.515zm-.126-25.679c0-.057-.051-.224.103-.158.156.067.352.106.415.307.045.143-.059.202-.167.269-.171-.089-.351-.181-.351-.418zm.418 25.963c.09-.311.373-.419.639-.515.049-.018.227.139.172.251-.131.27-.371.447-.616.595-.16-.066-.237-.184-.195-.331zm.268 5.439c-.045-.224.195-.22.304-.254.175-.054.251.106.25.272 0 .175-.086.33-.26.322-.155-.006-.283-.129-.294-.34zm.54-2.198c.276.27.506.407.626.839-.408-.166-.666-.272-.626-.839zm-.055 3.156l.157-.287c.113.162.347.24.331.491-.006.103-.045.2-.152.169a.467.467 0 0 1-.336-.373zm.39 3.224a.61.61 0 0 1 .606-.004.61.61 0 0 1-.606.004zm.617-4.836c-.152-.069-.117-.186-.112-.282.003-.05.051-.097.078-.146.066.084.153.16.186.255.013.037-.1.116-.152.173zm-.242-3.278c-.132-.098-.28-.16-.443-.117-.232.061-.554.346-.431-.253.03-.145-.23-.165-.394-.171-.137-.005-.303-.037-.212-.232.053-.114.158-.162.331-.129.46.088.718.511 1.145.636.101-.17.187-.351.307-.506.149-.194.341-.187.551-.075.217.116.411.25.306.526-.133.351-.222.73-.497 1.032-.266-.22-.498-.434-.663-.711zm1.098 3.776c.014-.15.118-.315.277-.287.231.041.511.16.517.431.005.222-.309.321-.452.322-.143.001-.345-.195-.342-.466zm.764 8.237c-.098-.206-.331-.367-.156-.619.151-.218.384-.186.66-.109-.135.305-.253.541-.504.728zm.378-13.546c.022-.304.444-.252.565-.504l.379.329c-.072.318-.355.359-.56.445-.183.077-.396-.096-.384-.27zm.803-7.959c.01-.146.098-.181.228-.175.15.008.18.105.18.227 0 .15-.089.189-.22.171-.135-.013-.197-.087-.188-.223zm.203 16.809c-.147.073-.199-.041-.209-.168-.011-.141.069-.211.203-.214.089-.002.183 0 .215.168-.057.062-.117.169-.209.214zm.288-23.557c-.273-.233-.535-.494-.621-.827-.083-.325.335-.404.487-.431.383-.068.495.335.584.605.106.319-.236.442-.45.653zm.344-7.431c-.004-.172.151-.138.254-.132.1.005.256-.051.269.121.013.172-.147.207-.269.276-.15-.026-.251-.119-.254-.265zm.407 15.964c.012-.184.113-.314.298-.299.154.012.108.171.111.275.005.152-.031.279-.227.26-.145-.013-.191-.109-.182-.236zm.339 2.234c-.095-.17-.112-.334-.002-.555.114.226.095.387.002.555zm.092-5.445c-.024-.278.267-.267.42-.372.127-.087.217.098.223.165.021.24-.199.329-.344.46-.155-.028-.287-.114-.299-.253zm.41 4.021c-.195-.117-.322-.314-.281-.529.065-.347.296-.619.56-.848.016-.014.2.11.192.136-.108.365.098.811-.274 1.107-.053.042-.112.076-.197.134zm.66 1.219c-.166.023-.251-.056-.266-.228.023-.057-.013-.188.134-.112.094.049.218.081.27.16.041.063-.031.166-.138.18zm.924-23.124c-.218-.207-.338-.434-.141-.649.103-.112.342.012.403.125.148.271-.155.346-.262.524zm.246-13.035c-.067-.081-.22-.117-.162-.264.039-.096.11-.18.191-.308.076.145.172.245.166.337-.005.083-.125.157-.195.235zm.546 30.94c-.135-.021-.202-.174-.189-.379.007-.062.001-.209.163-.182a.31.31 0 0 1 .254.288c.01.149-.078.296-.228.273zm.557 7.978c-.045.039-.199.021-.248-.027-.181-.18-.035-.321.178-.557-.08.266.318.367.07.584zm.359-2.975c-.507-.458.043-.597.229-.873.141.368-.011.618-.229.873zm-.021-2.966c-.162.037-.268-.075-.247-.242.033-.269.246-.295.461-.306.125-.006.227.015.231.179-.064.221-.246.323-.445.369zm.655.715c.477-.423.647.303 1.024.374-.294.104-.49.623-.84.197-.126-.153-.377-.4-.184-.571zm.393 1.379c-.089-.012-.186-.017-.185-.142.001-.118.089-.15.182-.144.089.005.186.031.19.147.005.129-.107.116-.187.139zm.84 3.851c-.112-.301-.082-.565-.005-.884.104.318.123.581.005.884zm-.069-3.86c-.171-.007-.207-.163-.241-.275-.047-.158.098-.245.219-.271.174-.037.227.127.241.251.015.137-.059.256-.219.295zm.206-10.829c-.196-.179-.389-.323-.528-.508-.029-.039.067-.323.298-.249.222.07.416.176.442.445.016.162-.106.216-.212.312zm1.046 9.302c-.195-.209-.337-.422-.27-.683.045-.178.184-.415.376-.348.237.083.379.33.281.611a.651.651 0 0 1-.387.42zm.974 7.711c-.284-.094-.518-.278-.569-.602-.023-.146.08-.21.214-.183.295.06.385.339.555.496-.03.163-.1.322-.2.289zm.61-1.292c-.104.208-.285.377-.423.552-.237-.095-.24-.284-.185-.414.083-.198.236-.366.359-.546.105.125.355.197.249.408z" data-color="1" class="shape"></path></g></g>
</svg>
</g><g opacity="1" transform="rotate(0 1016.8812 835.3418)">
<svg width="370.3345" height="90" x="1016.8812" y="835.3418" version="1.1" preserveAspectRatio="none" viewBox="0.36 -32.4 133.32 32.4">
  <g transform="matrix(1 0 0 1 0 0)" class="companyName"><path id="id-D6z1nYkh6" d="M6.68 0L6.68-12.84L0.36-32.40L6.56-32.40L10.04-21L13.24-32.40L19.28-32.40L13.04-12.84L13.04 0L6.68 0Z M19.04 0L25.32-32.40L32.64-32.40L38.88 0L32.80 0L31.60-7.12L26.48-7.12L25.24 0L19.04 0ZM27.08-11.20L30.96-11.20L29-24.24L27.08-11.20Z M42.04 0L42.60-32.40L49.60-32.40L53.60-11.96L57.84-32.40L64.60-32.40L65.20 0L60.40 0L59.88-22L55.72 0L51.64 0L47.36-22.12L46.88 0L42.04 0Z M68.36 0L74.64-32.40L81.96-32.40L88.20 0L82.12 0L80.92-7.12L75.80-7.12L74.56 0L68.36 0ZM76.40-11.20L80.28-11.20L78.32-24.24L76.40-11.20Z M91.56 0L91.56-32.40L98.16-32.40L98.16-19.12L103.88-19.12L103.88-32.40L110.48-32.40L110.48 0L103.88 0L103.88-14.36L98.16-14.36L98.16 0L91.56 0Z M113.84 0L120.12-32.40L127.44-32.40L133.68 0L127.60 0L126.40-7.12L121.28-7.12L120.04 0L113.84 0ZM121.88-11.20L125.76-11.20L123.80-24.24L121.88-11.20Z"/></g>
</svg>
</g></svg></svg>